<svg width="21" height="20" viewBox="0 0 21 20" fill="none" xmlns="http://www.w3.org/2000/svg">
<path opacity="0.4" d="M17.4667 10.6083C17.1584 10.6083 16.9 10.375 16.8667 10.0667C16.6667 8.23333 15.6834 6.58333 14.1667 5.53333C13.8917 5.34167 13.825 4.96667 14.0167 4.69167C14.2084 4.41667 14.5834 4.35 14.8584 4.54167C16.6667 5.8 17.8334 7.76667 18.075 9.94167C18.1084 10.275 17.8667 10.575 17.5334 10.6083C17.5084 10.6083 17.4917 10.6083 17.4667 10.6083Z" fill="white"/>
<path opacity="0.4" d="M3.61662 10.65C3.59996 10.65 3.57496 10.65 3.55829 10.65C3.22496 10.6167 2.98329 10.3167 3.01662 9.98333C3.24162 7.80833 4.39162 5.84167 6.18329 4.575C6.44996 4.38333 6.83329 4.45 7.02496 4.71667C7.21662 4.99167 7.14996 5.36667 6.88329 5.55833C5.38329 6.625 4.40829 8.275 4.22496 10.1C4.19162 10.4167 3.92496 10.65 3.61662 10.65Z" fill="white"/>
<path opacity="0.4" d="M13.825 17.5833C12.8 18.075 11.7 18.325 10.55 18.325C9.34996 18.325 8.20829 18.0583 7.14163 17.5167C6.84163 17.375 6.72496 17.0083 6.87496 16.7083C7.01663 16.4083 7.38329 16.2917 7.68329 16.4333C8.20829 16.7 8.76663 16.8833 9.3333 16.9917C10.1 17.1417 10.8833 17.15 11.65 17.0167C12.2166 16.9167 12.775 16.7417 13.2916 16.4917C13.6 16.35 13.9666 16.4667 14.1 16.775C14.25 17.075 14.1333 17.4417 13.825 17.5833Z" fill="white"/>
<path d="M10.5417 1.675C9.24998 1.675 8.19165 2.725 8.19165 4.025C8.19165 5.325 9.24165 6.375 10.5417 6.375C11.8417 6.375 12.8917 5.325 12.8917 4.025C12.8917 2.725 11.8417 1.675 10.5417 1.675Z" fill="white"/>
<path d="M4.70828 11.5583C3.41661 11.5583 2.35828 12.6083 2.35828 13.9083C2.35828 15.2083 3.40828 16.2583 4.70828 16.2583C6.00828 16.2583 7.05828 15.2083 7.05828 13.9083C7.05828 12.6083 5.99994 11.5583 4.70828 11.5583Z" fill="white"/>
<path d="M16.2917 11.5583C15 11.5583 13.9417 12.6083 13.9417 13.9083C13.9417 15.2083 14.9917 16.2583 16.2917 16.2583C17.5917 16.2583 18.6417 15.2083 18.6417 13.9083C18.6417 12.6083 17.5917 11.5583 16.2917 11.5583Z" fill="white"/>
</svg>
