<svg width="21" height="20" viewBox="0 0 21 20" fill="none" xmlns="http://www.w3.org/2000/svg">
<path d="M13.8333 10.75V14.25C13.8333 17.1667 12.6666 18.3333 9.74996 18.3333H6.24996C3.33329 18.3333 2.16663 17.1667 2.16663 14.25V10.75C2.16663 7.83334 3.33329 6.66667 6.24996 6.66667H9.74996C12.6666 6.66667 13.8333 7.83334 13.8333 10.75Z" fill="white"/>
<path opacity="0.4" d="M14.75 1.66667H11.25C8.37505 1.66667 7.20838 2.80834 7.17505 5.625H9.75005C13.25 5.625 14.875 7.25 14.875 10.75V13.325C17.6917 13.2917 18.8334 12.125 18.8334 9.25001V5.75001C18.8334 2.83334 17.6667 1.66667 14.75 1.66667Z" fill="white"/>
</svg>
