<svg width="20" height="20" viewBox="0 0 20 20" fill="none" xmlns="http://www.w3.org/2000/svg">
<path d="M18.3333 4.75833V12.7417C18.3333 15.0417 16.4666 16.9083 14.1666 16.9083H5.83331C5.44998 16.9083 5.08331 16.8583 4.72498 16.7583C4.20831 16.6167 4.04164 15.9583 4.42498 15.575L13.2833 6.71666C13.4666 6.53333 13.7416 6.49166 14 6.54166C14.2666 6.59166 14.5583 6.51666 14.7666 6.31666L16.9083 4.16666C17.6916 3.38333 18.3333 3.64166 18.3333 4.75833Z" fill="#F1F57B"/>
<path opacity="0.4" d="M12.2 6.13332L3.47496 14.8583C3.07496 15.2583 2.40829 15.1583 2.14163 14.6583C1.83329 14.0917 1.66663 13.4333 1.66663 12.7417V4.75832C1.66663 3.64165 2.30829 3.38332 3.09163 4.16665L5.24163 6.32499C5.56663 6.64165 6.09996 6.64165 6.42496 6.32499L9.40829 3.33332C9.73329 3.00832 10.2666 3.00832 10.5916 3.33332L12.2083 4.94999C12.525 5.27499 12.525 5.80832 12.2 6.13332Z" fill="#F1F57B"/>
</svg>
