<svg width="18" height="18" viewBox="0 0 18 18" fill="none" xmlns="http://www.w3.org/2000/svg">
<path opacity="0.4" d="M12.1425 1.5H5.8575C3.1275 1.5 1.5 3.1275 1.5 5.8575V12.135C1.5 14.8725 3.1275 16.5 5.8575 16.5H12.135C14.865 16.5 16.4925 14.8725 16.4925 12.1425V5.8575C16.5 3.1275 14.8725 1.5 12.1425 1.5Z" fill="#927BF5"/>
<path d="M8.055 12.21C7.9125 12.21 7.77 12.1575 7.6575 12.045C7.44 11.8275 7.44 11.4675 7.6575 11.25L9.9075 9L7.6575 6.75C7.44 6.5325 7.44 6.1725 7.6575 5.955C7.875 5.7375 8.235 5.7375 8.4525 5.955L11.1 8.6025C11.3175 8.82 11.3175 9.18 11.1 9.3975L8.4525 12.045C8.34 12.1575 8.1975 12.21 8.055 12.21Z" fill="#927BF5"/>
</svg>
