<svg width="32" height="24" viewBox="0 0 32 24" fill="none" xmlns="http://www.w3.org/2000/svg">
<path fill-rule="evenodd" clip-rule="evenodd" d="M30.3287 2.4455C30.8252 2.94519 31.1817 3.56651 31.3627 4.24729C32.0317 6.76002 32.0317 12 32.0317 12C32.0317 12 32.0317 17.24 31.3627 19.7527C31.1817 20.4335 30.8252 21.0549 30.3287 21.5545C29.8322 22.0542 29.2132 22.4147 28.5336 22.6C26.0317 23.2727 16.0317 23.2727 16.0317 23.2727C16.0317 23.2727 6.03174 23.2727 3.52992 22.6C2.85031 22.4147 2.23128 22.0542 1.73479 21.5545C1.23829 21.0549 0.881746 20.4335 0.700829 19.7527C0.0317384 17.24 0.0317383 12 0.0317383 12C0.0317383 12 0.0317384 6.76002 0.700829 4.24729C0.881746 3.56651 1.23829 2.94519 1.73479 2.4455C2.23128 1.94582 2.85031 1.5853 3.52992 1.40002C6.03174 0.727295 16.0317 0.727295 16.0317 0.727295C16.0317 0.727295 26.0317 0.727295 28.5336 1.40002C29.2132 1.5853 29.8322 1.94582 30.3287 2.4455ZM21.1227 12.0001L12.759 7.24188V16.7582L21.1227 12.0001Z" fill="#927BF5"/>
</svg>
